<?xml version="1.0" encoding="UTF-8" standalone="no"?>
<!-- Created with Inkscape (http://www.inkscape.org/) -->

<svg
   xmlns:dc="http://purl.org/dc/elements/1.1/"
   xmlns:cc="http://creativecommons.org/ns#"
   xmlns:rdf="http://www.w3.org/1999/02/22-rdf-syntax-ns#"
   xmlns:svg="http://www.w3.org/2000/svg"
   xmlns="http://www.w3.org/2000/svg"
   xmlns:xlink="http://www.w3.org/1999/xlink"
   xmlns:sodipodi="http://sodipodi.sourceforge.net/DTD/sodipodi-0.dtd"
   xmlns:inkscape="http://www.inkscape.org/namespaces/inkscape"
   sodipodi:docname="Cappadocia-45.svg"
   inkscape:version="0.48.4 r9939"
   version="1.1"
   id="svg2"
   height="1101.1859"
   width="1419.7123">
  <sodipodi:namedview
     id="base"
     pagecolor="#ffffff"
     bordercolor="#666666"
     borderopacity="1.0"
     inkscape:pageopacity="0.0"
     inkscape:pageshadow="2"
     inkscape:zoom="0.41928525"
     inkscape:cx="185.22916"
     inkscape:cy="539.80355"
     inkscape:document-units="px"
     inkscape:current-layer="layer1"
     showgrid="false"
     inkscape:window-width="1366"
     inkscape:window-height="706"
     inkscape:window-x="-8"
     inkscape:window-y="-8"
     inkscape:window-maximized="1"
     fit-margin-top="0"
     fit-margin-left="0"
     fit-margin-right="0"
     fit-margin-bottom="0" />
  <defs
     id="defs4" />
  <metadata
     id="metadata7">
    <rdf:RDF>
      <cc:Work
         rdf:about="">
        <dc:format>image/svg+xml</dc:format>
        <dc:type
           rdf:resource="http://purl.org/dc/dcmitype/StillImage" />
        <dc:title></dc:title>
      </cc:Work>
    </rdf:RDF>
  </metadata>
  <g
     id="layer1"
     inkscape:groupmode="layer"
     inkscape:label="Layer 1"
     transform="translate(6.4113292,499.9263)">
    <path
       style="fill:#333333;fill-opacity:1;fill-rule:evenodd;stroke:none"
       d="m -938.12766,529.35768 c -97.19454,5.90173 -378.40724,4.44991 -491.14084,-1.93577 -124.0376,-7.026 124.5642,-915.51948 248.778,-917.89267 124.2138,-2.37321 366.37087,912.29855 242.36284,919.82844 z"
       id="path3160"
       inkscape:connector-curvature="0"
       sodipodi:nodetypes="ssss" />
    <path
       inkscape:connector-curvature="0"
       style="fill:#333333;fill-opacity:1;fill-rule:evenodd;stroke:none"
       d="m -1090.709,-521.30804 c 0,40.23789 -52.4466,72.85714 -117.1428,72.85714 -64.6962,0 -117.1429,-32.61925 -117.1429,-72.85714 0,-40.23789 52.4467,-72.85714 117.1429,-72.85714 64.6962,0 117.1428,32.61925 117.1428,72.85714 z"
       id="path3178" />
    <use
       height="1052.3622"
       width="744.09448"
       style="fill:#3192fb;stroke:#3192fb"
       id="use3358"
       transform="matrix(-0.83823652,0.25974431,-0.25974431,-0.83823652,-263.48164,122.14204)"
       xlink:href="#path3255"
       inkscape:tiled-clone-of="#path3255"
       y="0"
       x="0" />
    <path
       style="fill:#f2f2f2;fill-opacity:1;fill-rule:evenodd;stroke:none"
       d="m -694.47671,-122.48446 c 7.10566,-20.47742 -15.33435,-64.6879 24.6825,-46.8291 19.55547,-12.18756 34.16836,1.46426 22.60768,21.63742 16.05375,37.91509 -25.01304,29.41839 -47.29018,25.19168 z"
       id="use3360"
       inkscape:connector-curvature="0" />
    <path
       style="fill:#f2f2f2;fill-opacity:1;fill-rule:evenodd;stroke:none"
       d="m -725.20569,-77.854721 c 5.48007,-22.086347 5.65074,-56.936309 38.14732,-39.650129 29.2504,2.75512 2.70217,33.249356 3.85641,48.896239 -13.35981,0.467818 -26.90869,-10.901762 -42.00373,-9.24611 z"
       id="use3362"
       inkscape:connector-curvature="0" />
    <path
       style="fill:#f2f2f2;fill-opacity:1;fill-rule:evenodd;stroke:none"
       d="m -693.80612,18.893317 c -13.90257,-12.0209441 -62.67336,2.3824 -40.31567,-27.1969371 3.4694,-12.9531019 -4.21133,-42.4008069 20.83298,-28.2085239 43.54514,0.532328 27.9783,26.8848939 19.48269,55.405461 z"
       id="use3364"
       inkscape:connector-curvature="0" />
    <path
       style="fill:#f2f2f2;fill-opacity:1;fill-rule:evenodd;stroke:none"
       d="m -698.85029,15.055509 c 19.68103,-5.6206827 59.97349,-17.8891561 49.49241,18.047024 28.75526,36.395813 -63.99719,46.825519 -44.13812,4.877552 -1.28514,-7.749815 -3.31107,-15.348561 -5.35429,-22.924576 z"
       id="use3366"
       inkscape:connector-curvature="0" />
    <path
       style="fill:#f2f2f2;fill-opacity:1;fill-rule:evenodd;stroke:none"
       d="m -711.34935,110.28176 c 11.18719,-19.383539 30.75786,-61.479874 49.09446,-23.156198 23.65393,1.212622 29.44931,20.189878 7.59643,31.690538 -12.09729,42.17894 -38.8415,7.83969 -56.69089,-8.53434 z"
       id="use3368"
       inkscape:connector-curvature="0" />
    <path
       style="fill:#f2f2f2;fill-opacity:1;fill-rule:evenodd;stroke:none"
       d="m -735.5914,329.02968 c -0.91601,-21.26986 -40.85854,-56.15525 -8.48837,-66.66164 22.45394,-3.33222 56.64911,-34.41962 56.17741,9.47075 24.55664,29.37361 2.18174,44.4928 -27.96731,46.9304 -6.66411,3.24315 -13.22158,6.70153 -19.72173,10.26049 z"
       id="use3372"
       inkscape:connector-curvature="0" />
    <path
       style="fill:#f2f2f2;fill-opacity:1;fill-rule:evenodd;stroke:none"
       d="m -686.10861,302.91921 c -9.83699,20.5885 -20.406,52.14627 -45.95903,26.91445 -30.19518,-6.75712 8.23537,-69.7264 26.33847,-35.22702 6.35884,3.18065 12.99375,5.75681 19.62056,8.31257 z"
       id="use3374"
       inkscape:connector-curvature="0" />
    <path
       style="fill:#f2f2f2;fill-opacity:1;fill-rule:evenodd;stroke:none"
       d="m -584.63842,-261.25148 c -7.81051,20.89135 33.94517,52.20842 3.67347,59.24813 -20.38036,-0.1314 -52.79531,29.14391 -47.36923,-11.69899 -19.01926,-22.96527 -5.25791,-45.56037 23.78855,-45.15733 6.58897,-1.13948 13.24365,-1.8643 19.90721,-2.39181 z"
       id="use3378"
       inkscape:connector-curvature="0" />
    <path
       style="fill:#f2f2f2;fill-opacity:1;fill-rule:evenodd;stroke:none"
       d="m -620.2455,-223.49362 c 3.87514,18.38165 49.72197,44.19899 11.75484,51.22276 -12.14571,7.9449 -28.32345,35.21059 -37.31139,6.53277 -10.67155,-11.55811 -27.24686,-36.21939 1.43228,-36.62383 10.63497,-3.22528 16.8684,-13.51537 24.12427,-21.1317 z"
       id="use3380"
       inkscape:connector-curvature="0" />
    <path
       style="fill:#f2f2f2;fill-opacity:1;fill-rule:evenodd;stroke:none"
       d="m -603.44131,-134.47046 c 3.19975,20.85565 30.65804,59.615914 -11.48223,52.320587 -15.51991,17.118269 -33.89675,8.245179 -28.59769,-14.69487 -18.04524,-20.312827 -0.8998,-32.596537 20.43232,-29.794117 6.64859,-2.35174 13.16561,-5.059 19.6476,-7.8316 z"
       id="use3382"
       inkscape:connector-curvature="0" />
    <path
       style="fill:#f2f2f2;fill-opacity:1;fill-rule:evenodd;stroke:none"
       d="m -645.75944,18.215404 c -3.3321,-26.0668169 -56.15727,-39.276464 -32.38743,-64.843287 17.5213,-16.844144 50.27479,-46.909818 57.96142,-4.778675 16.86326,11.130694 38.34372,36.377169 3.77357,40.564364 -13.20063,5.1567019 -20.55637,18.7158377 -29.34756,29.057598 z"
       id="use3384"
       inkscape:connector-curvature="0" />
    <path
       style="fill:#f2f2f2;fill-opacity:1;fill-rule:evenodd;stroke:none"
       d="m -602.96135,7.085741 c 18.56042,13.231861 58.37738,35.783634 22.77525,55.763558 -14.29141,38.943241 -38.11917,0.208277 -55.67748,-13.020512 -1.80949,-18.131947 23.24503,-29.439787 32.90223,-42.743046 z"
       id="use3386"
       inkscape:connector-curvature="0" />
    <path
       style="fill:#f2f2f2;fill-opacity:1;fill-rule:evenodd;stroke:none"
       d="m -654.32052,114.45415 c 12.70401,15.53311 55.50647,23.11395 40.31917,48.84742 -11.16315,18.16884 -33.49996,49.60113 -48.2795,15.53843 -30.41568,-7.81828 -30.22172,-32.92456 -5.93563,-49.79316 4.4768,-5.00909 9.14367,-9.8454 13.89596,-14.59269 z"
       id="use3388"
       inkscape:connector-curvature="0" />
    <path
       style="fill:#f2f2f2;fill-opacity:1;fill-rule:evenodd;stroke:none"
       d="m -655.48329,217.74582 c 21.04664,-9.90822 50.05953,-28.61912 54.33531,8.12466 19.20153,24.65307 -52.45899,50.41539 -43.39939,10.90495 -3.08615,-6.64883 -7.0076,-12.85864 -10.93592,-19.02961 z"
       id="use3390"
       inkscape:connector-curvature="0" />
    <path
       style="fill:#f2f2f2;fill-opacity:1;fill-rule:evenodd;stroke:none"
       d="m -625.77109,291.04993 c 10.60522,-17.06591 28.99079,-57.36851 53.43466,-37.91538 16.62946,14.2109 50.29631,35.6724 16.16638,53.11106 -15.09473,34.90328 -35.76674,18.9029 -51.09967,-4.5582 -5.98796,-3.84658 -12.20094,-7.33234 -18.50137,-10.63748 z"
       id="use3392"
       inkscape:connector-curvature="0" />
    <path
       style="fill:#f2f2f2;fill-opacity:1;fill-rule:evenodd;stroke:none"
       d="m -634.59384,384.80456 c 5.16992,-26.03201 26.64306,-53.65205 50.35756,-25.92316 33.65805,7.84624 -10.16351,70.6657 -32.20053,40.61001 -6.61968,-4.15032 -12.42181,-9.42584 -18.15703,-14.68685 z"
       id="use3394"
       inkscape:connector-curvature="0" />
    <path
       style="fill:#f2f2f2;fill-opacity:1;fill-rule:evenodd;stroke:none"
       d="m -594.15968,488.15187 c -13.94584,-17.55349 -62.39968,-6.06911 -49.82383,-37.42027 4.43322,-19.92245 17.85462,-50.43308 39.2284,-23.84549 26.70326,-0.19442 38.88242,17.30205 20.68525,39.80802 -3.0751,7.28359 -6.544,14.39403 -10.08982,21.45774 z"
       id="use3396"
       inkscape:connector-curvature="0" />
    <path
       style="fill:#f2f2f2;fill-opacity:1;fill-rule:evenodd;stroke:none"
       d="m -550.37724,-270.29971 c 10.06506,21.61462 10.3266,53.28683 -21.88776,47.25579 -27.45668,9.53218 -13.62797,-28.21038 -19.46359,-41.88088 11.2497,-7.29012 28.29732,-2.71202 41.35135,-5.37491 z"
       id="use3398"
       inkscape:connector-curvature="0" />
    <path
       style="fill:#f2f2f2;fill-opacity:1;fill-rule:evenodd;stroke:none"
       d="m -574.63699,-128.07778 c -9.0752,-20.01646 -48.23021,-48.31964 -20.98862,-68.03727 19.92776,-13.1758 53.82225,-37.49025 61.95262,1.26306 25.6657,23.44 10.02775,50.83844 -20.1208,57.60539 -6.84303,3.28764 -13.8167,6.29704 -20.8432,9.16882 z"
       id="use3400"
       inkscape:connector-curvature="0" />
    <path
       style="fill:#f2f2f2;fill-opacity:1;fill-rule:evenodd;stroke:none"
       d="m -546.21444,-3.1380358 c -8.76086,15.0294728 -4.83255,54.8687498 -31.42275,31.3627768 -37.35767,10.646012 -13.10842,-64.365887 11.85981,-36.0403677 6.45979,1.8047735 13.0128,3.2463881 19.56294,4.6775909 z"
       id="use3404"
       inkscape:connector-curvature="0" />
    <path
       style="fill:#f2f2f2;fill-opacity:1;fill-rule:evenodd;stroke:none"
       d="m -495.51259,29.885778 c -3.48282,19.455098 17.41164,66.634649 -19.68398,55.852962 -18.74802,2.536011 -47.50366,7.454616 -37.6843,-22.858001 -11.68057,-36.296274 27.76443,-42.903827 54.37918,-33.617617 l 2.9891,0.622656 z"
       id="use3406"
       inkscape:connector-curvature="0" />
    <path
       style="fill:#f2f2f2;fill-opacity:1;fill-rule:evenodd;stroke:none"
       d="m -486.24392,146.64939 c -22.52033,-2.76948 -39.83642,46.81993 -54.66778,19.86437 -1.06536,-19.20819 -44.25873,-37.6198 -6.40121,-47.15046 15.26533,-11.47199 37.43279,-30.629795 45.44072,0.21239 5.69063,8.74171 10.82298,17.81709 15.62827,27.0737 z"
       id="use3408"
       inkscape:connector-curvature="0" />
    <path
       style="fill:#f2f2f2;fill-opacity:1;fill-rule:evenodd;stroke:none"
       d="m -584.64676,180.89278 c 24.63995,7.59781 43.24651,-39.05543 60.45317,-14.05371 10.82709,18.10648 28.79961,52.48274 -8.77606,46.99192 -12.28985,10.69398 -34.92582,28.74703 -36.66096,-1.01544 -3.25118,-11.32931 -10.08617,-21.27636 -15.01615,-31.92277 z"
       id="use3410"
       inkscape:connector-curvature="0" />
    <path
       style="fill:#f2f2f2;fill-opacity:1;fill-rule:evenodd;stroke:none"
       d="m -516.00433,225.49631 c -16.44935,20.83392 12.64498,52.40425 -6.80826,65.25122 -17.55205,-16.46032 -55.69812,16.62442 -57.57615,-11.61231 17.61496,-18.83418 -18.67975,-66.02484 24.84432,-54.17236 13.07724,1.69456 26.37724,0.0659 39.54009,0.53345 z"
       id="use3412"
       inkscape:connector-curvature="0" />
    <path
       style="fill:#f2f2f2;fill-opacity:1;fill-rule:evenodd;stroke:none"
       d="m -582.0877,309.05951 c 23.19587,1.58343 37.20546,-56.28965 50.65998,-21.79431 4.21141,17.61902 45.85203,25.07106 14.15999,42.65094 -12.91385,15.52299 -37.20407,29.85921 -41.82352,-0.74403 -5.97432,-8.28824 -15.00786,-13.93814 -22.99645,-20.1126 z"
       id="use3414"
       inkscape:connector-curvature="0" />
    <path
       style="fill:#f2f2f2;fill-opacity:1;fill-rule:evenodd;stroke:none"
       d="m -598.55903,468.52653 c 4.15359,-20.8455 -21.05773,-60.93769 19.36109,-50.71411 18.6218,-12.21765 33.72322,1.22244 24.83048,21.29105 19.3353,36.37115 -22.02597,29.5649 -44.19157,29.42306 z"
       id="use3416"
       inkscape:connector-curvature="0" />
    <path
       style="fill:#f2f2f2;fill-opacity:1;fill-rule:evenodd;stroke:none"
       d="m -484.67885,-115.34032 c -20.82577,10.21591 -9.89225,60.337835 -37.78288,47.233425 -16.58773,-11.69433 -57.64832,-17.02922 -26.03845,-41.439275 1.34522,-31.37575 25.24481,-35.29654 46.56667,-15.55238 5.82556,3.11964 11.56325,6.40098 17.25466,9.75823 z"
       id="use3422"
       inkscape:connector-curvature="0" />
    <path
       style="fill:#f2f2f2;fill-opacity:1;fill-rule:evenodd;stroke:none"
       d="m -435.84422,170.6742 c -17.36623,-5.74848 -58.64788,-6.93289 -31.79675,-32.9581 -9.53383,-35.91244 28.92538,-16.05796 43.71785,-8.12683 -2.58712,13.4516 -14.6959,24.8476 -11.9211,41.08493 z"
       id="use3428"
       inkscape:connector-curvature="0" />
    <path
       style="fill:#f2f2f2;fill-opacity:1;fill-rule:evenodd;stroke:none"
       d="m -475.09027,223.59435 c 14.52643,-12.86612 15.04108,-59.28277 41.24348,-44.41806 16.48537,11.89465 55.77052,21.91479 22.24473,42.913 -3.55858,22.41427 -20.81407,40.12552 -41.09928,19.09364 -8.19471,-4.84217 -15.32203,-11.26931 -22.38893,-17.58858 z"
       id="use3430"
       inkscape:connector-curvature="0" />
    <path
       style="fill:#f2f2f2;fill-opacity:1;fill-rule:evenodd;stroke:none"
       d="m -416.60132,441.44691 c 8.82702,22.93205 2.46111,53.50513 -27.78302,42.49313 -29.66065,10.63767 -23.7583,-64.54514 7.03193,-39.45802 7.01184,-0.19607 13.90881,-1.60909 20.75109,-3.03511 z"
       id="use3434"
       inkscape:connector-curvature="0" />
    <path
       style="fill:#f2f2f2;fill-opacity:1;fill-rule:evenodd;stroke:none"
       d="m -449.32491,-28.883785 c 3.46734,-26.90504 -28.9125,-41.23453 -26.97039,-63.13348 22.28464,-2.79741 37.99696,-20.123925 56.94036,-27.367445 11.16917,16.82112 13.08142,40.259555 29.11936,55.864905 -6.29508,20.45848 -43.67355,19.77062 -59.08933,34.63602 z"
       id="use3436"
       inkscape:connector-curvature="0" />
    <path
       style="fill:#f2f2f2;fill-opacity:1;fill-rule:evenodd;stroke:none"
       d="m -417.15658,388.73188 c -12.59029,-16.91094 -60.10963,-24.89285 -22.39057,-45.49368 0.61031,-22.05905 19.41118,-27.57265 29.885,-7.23749 42.79882,13.0748 -1.3707,30.1732 -7.49443,52.73117 z"
       id="use3442"
       inkscape:connector-curvature="0" />
    <path
       style="fill:#f2f2f2;fill-opacity:1;fill-rule:evenodd;stroke:none"
       d="m -389.65322,-183.96569 c -22.04234,-1.86007 -53.50578,34.77614 -55.39619,-6.93414 -15.80806,-17.42541 -2.82926,-32.95603 17.97292,-26.37898 30.47889,-31.94498 32.58455,10.73358 37.42327,33.31312 z"
       id="use3444"
       inkscape:connector-curvature="0" />
    <path
       style="fill:#f2f2f2;fill-opacity:1;fill-rule:evenodd;stroke:none"
       d="m -344.39105,268.83231 c -14.87081,13.49786 -12.54839,59.64605 -37.73291,27.34403 -37.50054,4.82018 -12.79328,-31.47605 -2.10036,-45.19027 13.48248,2.52285 24.67859,15.98573 39.83327,17.84624 z"
       id="use3454"
       inkscape:connector-curvature="0" />
    <g
       id="g4486">
      <path
         style="fill:#241f1c;fill-opacity:1;fill-rule:evenodd;stroke:none"
         d="m 484.72948,595.66229 c -161.65609,9.89475 -313.87041,1.07472 -491.1408092,-1.71454 L 32.305819,495.61416 35.592215,391.51333 53.442878,293.75736 24.883385,185.90739 51.406349,74.664016 l 66.351131,-86.34437 53.17157,-113.908006 71.43759,-93.45383 48.43903,105.65105 19.39427,112.72862858 88.76879,83.21965542 26.23393,110.055506 70.99264,91.35743 5.1475,106.79606 -13.82546,114.80692 -2.78786,90.08923"
         id="path2985"
         inkscape:connector-curvature="0"
         sodipodi:nodetypes="cccccccccccccccccc" />
      <path
         sodipodi:nodetypes="cccccccccscccccccc"
         inkscape:connector-curvature="0"
         id="path2988"
         d="m 967.58662,597.74741 c -164.60452,4.28771 -320.79666,0.34694 -491.14081,-2.13978 l -0.3747,-128.90555 -4.74215,-140.49221 38.74505,-105.61817 -2.33348,-134.227642 71.7066,-117.422194 35.26017,-136.204154 36.9484,-126.69235 c 0,0 56.58815,-122.04687 73.56808,-125.06751 29.85684,-5.31136 77.44984,91.77959 77.44984,91.77959 l 57.03354,146.1604 20.34471,140.323926 59.43652,126.015826 13.13198,136.906838 36.94568,150.51675 14.09415,127.9331 -36.07358,97.13313"
         style="fill:#241f1c;fill-opacity:1;fill-rule:evenodd;stroke:none" />
      <path
         style="fill:#241f1c;fill-opacity:1;fill-rule:evenodd;stroke:none"
         d="m 1413.3009,597.45697 c -165.2616,2.60773 -322.9238,7.95822 -491.14079,-1.93577 l 61.95873,-230.40343 34.75446,-236.04393 66.0941,-229.070258 c 0,0 35.6635,-192.685262 85.9707,-222.375052 29.7751,-17.57233 78.1429,227.061992 78.1429,227.061992 l 17.9625,239.459428 100.3606,217.86727 45.8968,235.43975"
         id="path2990"
         inkscape:connector-curvature="0"
         sodipodi:nodetypes="cccccscccc" />
      <path
         style="fill:#241f1c;fill-opacity:1;fill-rule:evenodd;stroke:none"
         d="m 340.28667,-221.96003 c -15.05769,-7.04612 -30.52673,-16.113 -47.77769,-14.61055 -11.29085,0.90289 -23.34114,-1.16494 -31.46046,-9.74323 -7.38588,-7.45465 -15.97705,-13.53443 -25.77036,-17.3961 -11.32007,-5.69625 -25.95359,-8.3859 -36.64128,0.22322 -11.48015,8.79087 -21.46908,19.76703 -27.87484,32.81522 -6.09945,13.44386 -19.61671,20.1706 -31.39966,27.70118 -8.03569,7.34083 -18.17293,12.22408 -25.38723,20.45494 -8.81083,10.41118 3.722,20.57448 13.79817,22.10477 19.626,4.68045 34.90346,20.9917 55.70271,21.89023 12.84747,0.71649 26.46468,0.53759 37.71465,7.73889 9.18024,5.95565 23.28007,8.02919 29.63912,-3.08892 5.81956,-8.58907 10.32564,-18.63141 19.93233,-23.81202 13.02435,-7.80991 25.78521,-16.24589 36.04646,-27.60124 11.67792,-11.74735 22.67514,-24.12735 33.47808,-36.67639 z"
         id="path3181"
         inkscape:connector-curvature="0" />
      <path
         sodipodi:nodetypes="cccccccccccccc"
         style="fill:#241f1c;fill-opacity:1;fill-rule:evenodd;stroke:none"
         d="m 838.6182,-386.15103 -42.44296,7.19827 -39.64067,11.88916 -42.66553,6.12938 -38.88796,-23.70039 -28.10087,-31.81163 -32.93285,-28.42147 c -31.4039,-34.78792 -27.44662,-32.05269 17.86224,-36.22234 l 37.32749,-16.08204 44.69492,0.44203 43.78466,-3.19624 38.31667,24.00903 33.09891,28.6241 27.25833,31.78927"
         id="path3204"
         inkscape:connector-curvature="0" />
      <path
         style="fill:#241f1c;fill-opacity:1;fill-rule:evenodd;stroke:none"
         d="m 1293.1107,-282.04036 c -24.3044,21.03014 -53.9959,24.92605 -84.5694,13.27098 -11.1821,-4.70816 -67.029,14.14654 -74.6476,4.79761 -9.8995,-12.14774 -16.5245,-26.68167 -27.6718,-37.93599 -9.5061,-9.5974 -18.8537,-19.1538 -29.3058,-27.74565 -16.8305,-13.83508 15.6535,-11.71368 23.6789,-14.81253 22.8306,-8.8156 44.4427,-20.85265 67.6235,-28.67564 9.6308,-3.25024 20.1458,-12.757 29.3196,-8.37992 32.2365,22.43016 52.6657,56.4828 78.287,81.68364 5.9664,5.72673 20.2659,10.08317 17.2856,17.7975 z"
         id="path3228"
         inkscape:connector-curvature="0"
         sodipodi:nodetypes="ccsssssccc" />
      <path
         inkscape:connector-curvature="0"
         id="path3255"
         d="m 166.95077,119.82281 c -23.59345,7.27382 -35.12787,58.76246 -57.26893,19.76558 -36.774235,-18.2823 4.46653,-37.26726 17.3216,-54.919369 17.48546,0.12311 25.69668,26.329349 39.94733,35.153789 z"
         style="fill:#e6e6e6;fill-opacity:1;fill-rule:evenodd;stroke:none" />
      <path
         inkscape:connector-curvature="0"
         id="use3370"
         d="m 357.42098,102.8673 c -14.4079,10.01293 -15.46311,51.21006 -35.06189,20.90152 -38.68264,4.46604 0.59982,-60.53742 18.74793,-30.8396 5.52874,3.16135 10.92424,6.54755 16.31396,9.93808 z"
         style="fill:#e6e6e6;fill-opacity:1;fill-rule:evenodd;stroke:none" />
      <path
         inkscape:connector-curvature="0"
         id="use3376"
         d="m 1250.1607,528.7218 c -22.1116,-5.98666 -64.8607,34.11336 -70.1242,-15.23354 -1.6927,-34.8426 -12.0717,-94.34553 27.2109,-83.99016 26.3287,-13.83419 50.0019,10.527 39.5739,52.24439 1.0413,15.67049 2.1912,31.32501 3.3394,46.97931 z"
         style="fill:#e6e6e6;fill-opacity:1;fill-rule:evenodd;stroke:none" />
      <path
         inkscape:connector-curvature="0"
         id="use3402"
         d="m 1168.8943,49.901969 c 19.9145,-2.64917 36.7159,-46.1575201 46.2839,-7.43035 19.5416,7.9789 16.0159,24.954136 -4.6162,26.083756 -21.2873,37.838085 -22.866,-7.939403 -41.6677,-18.653406 z"
         style="fill:#e6e6e6;fill-opacity:1;fill-rule:evenodd;stroke:none" />
      <path
         inkscape:connector-curvature="0"
         id="use3418"
         d="m 349.91298,481.02956 c 22.13124,-2.18385 64.69723,-11.51095 53.52529,25.77172 9.19132,22.24372 -7.91561,33.7666 -27.08264,21.67167 -29.39784,15.79487 -28.15015,-8.3981 -23.02534,-29.768 -0.87528,-5.93879 -2.06895,-11.82729 -3.41731,-17.67539 z"
         style="fill:#e6e6e6;fill-opacity:1;fill-rule:evenodd;stroke:none" />
      <path
         inkscape:connector-curvature="0"
         id="use3420"
         d="m 574.9768,499.78786 c -14.83356,-12.20374 -40.672,-41.51676 -6.33301,-46.66973 11.17743,-25.17839 25.22029,-9.79839 31.81474,7.6021 26.90794,18.36773 -15.63318,27.09623 -25.48173,39.06763 z"
         style="fill:#e6e6e6;fill-opacity:1;fill-rule:evenodd;stroke:none" />
      <path
         inkscape:connector-curvature="0"
         id="use3424"
         d="m 1102.1497,461.8674 c -17.4267,21.88729 10.7832,52.02842 -7.3779,68.04339 -19.1441,-2.35375 -71.4513,13.45131 -56.0073,-22.61633 7.7269,-18.86854 -16.1567,-58.14013 22.8774,-48.74378 13.529,0.75662 27.0824,1.2348 40.5078,3.31672 z"
         style="fill:#e6e6e6;fill-opacity:1;fill-rule:evenodd;stroke:none" />
      <path
         inkscape:connector-curvature="0"
         id="use3426"
         d="m 764.666,-152.93145 c 19.24934,-9.33324 47.90729,-14.06512 44.71493,16.40406 13.38604,25.23688 -53.07875,33.89006 -38.36692,1.78831 -1.52428,-6.25457 -3.93285,-12.24193 -6.34801,-18.19237 z"
         style="fill:#e6e6e6;fill-opacity:1;fill-rule:evenodd;stroke:none" />
      <path
         inkscape:connector-curvature="0"
         id="use3432"
         d="m 212.04999,434.60823 c -2.59993,44.06896 14.14537,130.40528 -36.18429,105.74612 -30.87487,17.80253 -42.33707,-20.9956 -27.20009,-56.80259 -23.15864,-87.38319 31.82521,-48.85744 63.38438,-48.94353 z"
         style="fill:#e6e6e6;fill-opacity:1;fill-rule:evenodd;stroke:none" />
      <path
         inkscape:connector-curvature="0"
         id="use3438"
         d="m 130.78178,270.39601 c -15.44327,-23.92886 -22.8167,-63.22193 17.90337,-61.92879 31.79668,-15.82749 20.48728,32.3511 31.39741,47.86765 -10.67496,13.12778 -33.75902,12.04069 -49.30078,14.06114 z"
         style="fill:#e6e6e6;fill-opacity:1;fill-rule:evenodd;stroke:none" />
      <path
         inkscape:connector-curvature="0"
         id="use3440"
         d="m 97.238781,354.48668 c 14.359449,-18.71808 37.596059,-38.95432 50.613819,-7.58256 24.04474,14.30148 -14.53601,33.62272 -25.30931,38.02173 -6.14672,-12.55189 -11.48607,-23.77978 -25.304509,-30.43917 z"
         style="fill:#e6e6e6;fill-opacity:1;fill-rule:evenodd;stroke:none" />
      <path
         inkscape:connector-curvature="0"
         id="use3446"
         d="m 650.86586,88.458984 c -22.29559,5.928013 -22.27782,58.520966 -46.65881,38.756686 -12.67301,-16.34505 -53.89183,-25.92634 -21.17653,-48.364111 9.42049,-28.406751 37.80897,-28.044638 53.95794,-5.246587 4.87365,4.71226 9.45226,9.721315 13.8774,14.854012 z"
         style="fill:#e6e6e6;fill-opacity:1;fill-rule:evenodd;stroke:none" />
      <path
         inkscape:connector-curvature="0"
         id="use3448"
         d="m 1269.8833,295.77532 c 8.4403,14.78275 43.9019,48.48986 13.5535,56.60704 -21.4227,0.23027 -43.1096,42.12926 -51.5881,0.64465 -22.7596,-22.45431 -6.2677,-43.14438 20.2675,-48.26293 5.8955,-3.049 11.8237,-6.03446 17.7671,-8.98876 z"
         style="fill:#e6e6e6;fill-opacity:1;fill-rule:evenodd;stroke:none" />
      <path
         inkscape:connector-curvature="0"
         id="use3450"
         d="m 562.63825,239.18208 c 7.98213,-19.29492 4.07976,-71.52742 36.53464,-59.05013 20.55214,11.11246 67.64654,9.73467 38.22782,43.89816 1.39816,36.93767 -26.95291,41.19718 -53.18887,22.66872 -7.21392,-2.43976 -14.40072,-4.95907 -21.57359,-7.51675 z"
         style="fill:#e6e6e6;fill-opacity:1;fill-rule:evenodd;stroke:none" />
      <path
         inkscape:connector-curvature="0"
         id="use3452"
         d="m 870.06893,520.19939 c -18.94824,-4.90902 -58.93362,18.48536 -58.79327,-42.63761 0.5392,-43.50833 1.79012,-121.09811 32.67802,-84.70187 23.48266,-10.76728 43.05362,18.06887 28.94755,68.96053 -0.88333,19.47221 -1.85852,38.92574 -2.8323,58.37895 z"
         style="fill:#e6e6e6;fill-opacity:1;fill-rule:evenodd;stroke:none" />
      <path
         inkscape:connector-curvature="0"
         id="use3456"
         d="m 620.78078,321.2393 c -21.30724,11.52235 -8.92525,59.11176 -38.31807,50.24952 -19.52286,-7.865 -55.35363,-20.35717 -28.90632,-44.91046 2.71555,-24.2759 22.58057,-38.24574 41.21599,-16.84649 8.6716,3.83099 17.33998,7.66926 26.0084,11.50743 z"
         style="fill:#e6e6e6;fill-opacity:1;fill-rule:evenodd;stroke:none" />
    </g>
  </g>
</svg>
